<?xml version="1.0" encoding="UTF-8"?>
<svg id="Capa_1" xmlns="http://www.w3.org/2000/svg" version="1.1" viewBox="0 0 500 300.4">
  <!-- Generator: Adobe Illustrator 29.4.0, SVG Export Plug-In . SVG Version: 2.1.0 Build 152)  -->
  <defs>
    <style>
      .st0 {
        fill: #313131;
      }
    </style>
  </defs>
  <path class="st0" d="M424,176.2c-11.2,5.1-24.3,3.6-34.2-3.6l-13.1-9.5-88.4-63.8-.3-.2-.3-.2-.6-.4c-3.6-2.5-14.9-10.1-23.1-13.4,0,0,0,0-.1,0-.7-.3-1.3-.6-2-.8,0,0-.1,0-.2,0-2.1-.8-4.3-1.3-6.5-1.7,3.4,0,6.7,0,10,.1h2.2c55.3,1.4,104.4,9.1,138.8,20.7h0c31.7,10.7,50.9,24.6,50.9,39.9s-12.2,23.5-33.2,33h0ZM333.6,198.8c-25.6,3.3-53.9,5.2-83.6,5.2s-58.1-1.8-83.6-5.2c-23.4-4.2-12.1-20-6-26.8,0,0,.1-.1.2-.2,1.5-1.6,2.6-2.7,2.8-2.9,0,0,0,0,0,0,4-4,8.1-8,12.2-12,13.3-12.8,27-25,41.3-36.7,4.2-3.5,8.5-6.9,12.7-10.2h0c.5-.4.9-.8,1.4-1.1,3.3-2.4,11.5-7.9,19-7.9,7.5,0,15.7,5.5,19,7.9.2.1.3.2.4.3l.4.3c.2.1.3.2.4.3h.1c0,.1,0,.2,0,.2,4.3,3.3,8.5,6.7,12.7,10.2,14.2,11.7,28,24,41.2,36.7,4.1,4,8.2,8,12.2,12h.1c.4.4,1.4,1.4,2.7,2.8h0c6.1,6.7,17.9,22.8-5.8,27h0ZM110.2,172.7c-9.9,7.2-23,8.6-34.2,3.6-21-9.5-33.2-20.8-33.2-33s19.2-29.2,50.9-39.9c34.4-11.6,83.6-19.3,138.9-20.6h2.2c3.3-.1,6.7-.2,10.1-.2-2.3.3-4.4.9-6.5,1.7,0,0,0,0,0,0-.7.3-1.4.6-2.1.9,0,0,0,0-.1,0-8.3,3.3-19.5,10.9-23.2,13.4l-.6.4-.6.4-88.4,63.8-13.1,9.5h0ZM409.6,91.1c-34-10.1-76.9-17.1-124.3-19.4-11.3-.6-22.6-.8-33.9-.9h-2.8c-11.5,0-22.8.3-33.9.9-47.4,2.3-90.3,9.3-124.3,19.4-48.8,14.5-79.4,35.6-79.4,59.1s22,38.1,58.3,52c14.8,5.7,31.9,10.6,50.9,14.7,15.4,3.3,32.1,6.1,49.7,8.2,25,3,52,4.6,80.1,4.6s55.1-1.6,80.1-4.6c16.7-1.9,33.3-4.7,49.7-8.2,19-4.1,36.1-9,50.9-14.7,36.3-13.9,58.3-32.1,58.3-52s-30.7-44.6-79.4-59.1h0Z"/>
</svg>