<?xml version="1.0" encoding="UTF-8"?>
<svg id="Capa_1" data-name="Capa 1" xmlns="http://www.w3.org/2000/svg" viewBox="0 0 453.4 467.79">
  <g id="zbi86o">
    <path d="M413.28,379.11c-27.76,31.51-88.26,30.58-127.07,32.43-40.8,1.94-78.14,1.95-119.02,0-41.75-1.99-111.89-.65-134.68-43.32C7.97,322.25,3.69,211.53,6.71,159.04c4.45-77.49,36.35-90.71,107.5-98.5s147.85-7.52,215.98-1c35.23,3.37,82.4,7.38,102.31,40.69,19.15,32.03,15.4,105.27,13.19,142.79-2.07,35.18-9.04,109.56-32.41,136.09ZM211.49,75.82c-19.18,1.62-39.12.25-58.28,1.72-3.5.27-20.02,2.05-21.56,3.49l-.77,1.78c12.19,41.57,20.02,85.4,33.55,126.49,6.57,19.97,15.05,46.75,37.47,53.53,9.77,2.96,41.48,2.86,51.08-.52,24-8.47,32.56-41.83,39.22-63.78,11.62-38.32,19.62-77.82,30.34-116.4-.28-1.23-2.38-2.1-3.56-2.38-24.26-5.61-54.94-.72-79.74-4.26l-27.75.34ZM111.46,384.29c1.69-1.68,1.35-7.75,1.22-10.25-1.09-21.62-5.89-45.99-7.98-68.01-5.69-59.98-11.18-121.94-13.05-181.95-.17-5.34.97-36.77-.9-38.12-10.53.76-25.03,5.92-33.54,12.61-28.95,22.76-22.81,94.1-21.53,127.49,1.06,27.77,2.82,55.38,7.15,82.85,5,31.71,9.05,54,39.81,69.19,5.25,2.59,24.44,10.56,28.81,6.22ZM389.34,366.18c10.08-9.47,14.08-25.4,17.04-38.46,7.57-33.42,10.02-67.48,11.32-101.68,1.27-33.45,7.45-104.7-21.53-127.49-4.51-3.54-29.67-15.4-33.54-12.61l-2.9,84.12c-5.1,70.13-11.41,140.1-19.04,209.98l.92,3.81c.56.88,1.81,1.29,2.8,1.45,10.86,1.76,36.93-11.61,44.93-19.14ZM290.7,389.53c-2.09-12.01-6.09-24.88-9.98-36.52-4.46-13.32-8.63-31.1-22.79-37.21-15.65-6.75-57.4-7.26-70.27,5.18-9.61,9.29-19.81,45.54-23.45,59.55-.77,2.96-1.81,5.85-1.51,8.99h128Z"/>
  </g>
</svg>