<?xml version="1.0" encoding="UTF-8"?>
<svg id="Capa_1" data-name="Capa 1" xmlns="http://www.w3.org/2000/svg" viewBox="0 0 453.4 467.79">
  <g id="zHmonj">
    <path d="M52.08,259.37c.05,1.1.49,2.18,0,3.48l2.28-.42,126.41-75.97,72.56-.41c1.74-.56,5.77,4.14,5.77,5.08v84.52l1.8,1.05c1.07-.45,2.1-.99,3.1-1.58,43.97-25.97,85.98-59.22,130.08-84.7,1.64-.94,3.77-2.54,5.36-3.17,4.59-1.82,30.93-1.87,36.85-1.18,4.95.58,6.21,4.4,6.61,8.9,1.27,14.39,1.08,40.56-.04,55.08-.32,4.15-.94,9.28-3.95,12.33l-41.41,25.28-1.16-69-104.04,66.15-71.6.55c-2.61.37-6.57-3.66-6.57-5.83v-84.91l-67.43,39.58.7,2.71,46.18,46.09,1.16,2.33h-48.46c-3.65,0-27.57-27.24-32.56-30.88l-48.56,29.63c-1.41.55-3.08,1.4-4.53,1.67-8.28,1.57-36.4,1.23-45.43.38-2.43-.23-4.44-.47-6.22-2.31-3.66-3.78-1.79-6.5-1.85-10.48-.25-16.93-1.33-36.84-.53-53.41.2-4.07,2.49-8.61,5.65-11.25l39.81-24.16c.88,24.7-1.19,50.22,0,74.83Z"/>
  </g>
</svg>