<?xml version="1.0" encoding="UTF-8"?>
<svg id="Capa_1" data-name="Capa 1" xmlns="http://www.w3.org/2000/svg" viewBox="0 0 476.44 272.49">
  <defs>
    <style>
      .cls-1 {
        fill: #ffac44;
      }
    </style>
  </defs>
  <path class="cls-1" d="M236.34,42.37c-49.3,1.02-90.87,41.3-90.94,93.01.06,51.56,42.01,93.66,94.49,92.98,49.75-.64,91.94-41.21,91.67-93.81-.26-50.38-41.94-93.29-95.22-92.19ZM199.73,184.18c-.05,0-.11,0-.16,0-3.07.28-3.17.2-3.47-2.84-.2-1.97.08-1.97-2.1-1.94-2.64.04-2.39-.5-2.81,2.54-.03.22-.03.44-.06.65-.19,1.46-.3,1.56-1.72,1.58-2.47.04-2.49.04-2.03-2.4.8-4.3,1.42-8.64,2.2-12.94.51-2.8.75-5.64,1.46-8.41.23-.92.59-1.18,1.43-1.11.44.03.88,0,1.42,0,.71.08,1.65-.3,2.31.19.61.45.39,1.42.62,2.14.27.82.32,1.72.45,2.58.75,5.25,1.89,10.45,2.53,15.72.14,1.13.57,2.22.67,3.38.05.57-.17.82-.71.84ZM200.33,143.34c-.95.89-2.15,1.32-3.23,1.93-1.18.67-2.48,1.14-3.82,1.46-4.26,1.02-8.59,1.24-12.92.84-3.9-.36-7.66-1.37-11.03-3.48-1.64-1.03-2.57-2.65-3.39-4.34-.81-1.68-.95-3.49-.96-5.29-.05-8.61-.06-17.23-.08-25.84,0-3.58,1.19-6.67,3.92-9.05,1.28-1.12,2.82-1.8,4.47-2.34,6.17-2.04,12.43-1.94,18.71-.91,2.25.37,4.46,1.08,6.45,2.35,3.23,2.06,5.09,4.92,5.32,8.75.1,1.64.03,3.29.06,4.94.02.84-.33,1.18-1.17,1.17-3.4-.03-6.81-.01-10.21-.04-1.08,0-1.18-.13-1.2-1.28-.02-1.48-.09-2.97.02-4.44.17-2.1-1.63-4.11-3.77-4.51-1.8-.33-3.6-.36-5.4-.02-1.91.36-4.21,1.92-3.96,4.65.01.11,0,.22,0,.33,0,4.5,0,9,0,13.5h-.04c0,4.44,0,8.89,0,13.33,0,2.94,1.12,4.24,3.93,4.98,2.05.55,4.02.37,6-.18,1.91-.53,3.12-2.11,3.15-4.11.03-2.08,0-4.17.02-6.26.01-1.38.04-1.43,1.34-1.45,3.29-.03,6.59-.06,9.88-.05,1.34,0,1.41.08,1.42,1.39.02,1.92.02,3.84,0,5.76-.02,3.22-1.14,5.96-3.52,8.2ZM222.8,178.03c-.02,1.64-.23,3.27-1.39,4.61-1.51,1.75-4.24,2.4-6.81,1.59-1.98-.63-3.51-2.55-3.58-4.85-.1-3.18-.02-6.36-.02-9.54-.02,0-.03,0-.05,0,0-3.07-.01-6.14,0-9.21,0-1.28.03-1.31,1.28-1.3,3.26.02,2.76-.38,2.77,2.62.02,5.1,0,10.2.01,15.3,0,.76.03,1.54.17,2.29.2,1.12.58,1.39,1.67,1.38,1.13,0,1.7-.43,1.87-1.45.08-.48.06-.98.06-1.48,0-5.7,0-11.41,0-17.11,0-1.54,0-1.55,1.55-1.56,3.04-.01,2.47-.11,2.48,2.42.02,5.43.04,10.86-.01,16.29ZM242.81,163.2c-1.51,0-1.52.02-1.52,1.57,0,5.82,0,11.64,0,17.46,0,.38-.01.77,0,1.15.02.55-.26.8-.8.8-.05,0-.11,0-.16,0q-3.13.23-3.13-2.94v-7.58c0-3.07.01-6.15,0-9.22,0-1.17-.05-1.19-1.21-1.24-.11,0-.22.01-.33,0-.75-.09-1.79.38-2.18-.29-.52-.88-.2-2.03-.15-3.06.03-.49.49-.52.89-.52.99,0,1.98,0,2.97,0,2.25,0,4.51-.01,6.76,0,1.29,0,1.35.05,1.35,1.27,0,2.94.33,2.6-2.48,2.61ZM244.74,123.73c-2.44,1.37-5.03,2.09-7.81,2.33-3.35.3-6.69.24-10.04.24q-2.21,0-2.21,2.28c.01,5.38.02,10.76.03,16.14,0,.38-.01.77,0,1.15.03.76-.32,1.09-1.08,1.09-3.68-.02-7.36-.02-11.04-.01-.68,0-1.03-.26-1.01-.96.01-.38,0-.77,0-1.15,0-7.74,0-15.48,0-23.22,0,0,0,0,0,0,0-7.74,0-15.48,0-23.22,0-.38.02-.77,0-1.15-.03-.72.35-.98,1.01-.94.05,0,.11,0,.16,0,6.92-.01,13.84-.13,20.76.11,2.75.1,5.5.53,8.12,1.26,5.12,1.43,9.02,5.36,8.94,11.34-.02,1.59.01,3.18,0,4.78-.04,4.43-1.95,7.75-5.85,9.95ZM267.56,177.85c0,1.16-.31,2.28-.6,3.39-.23.88-.86,1.53-1.55,2.08-2.8,2.23-7.3,1.44-9.23-1.56-.48-.74-.54-1.54-.61-2.35-.23-2.51-.05-5.04-.12-7.56.08-2.63-.15-5.26.15-7.88.28-2.4,1.82-4.18,3.95-4.7,2.82-.68,5.46.08,6.8,2.04.9,1.3,1.16,2.85,1.19,4.38.06,4.05.03,8.11.02,12.16ZM289.8,179.34c-.12,1.97-.96,3.44-2.63,4.47-1.03.64-2.18.67-3.33.71-3.7.11-6.1-2.67-5.63-6.82.16-1.41,1.47-.69,2.28-.82.68-.11,1.37-.07,1.36.93,0,.44-.03.88.02,1.32.13,1.15.6,1.65,1.59,1.77,1.18.14,1.77-.17,2.22-1.23.69-1.63-.1-3-.88-4.31-.56-.95-1.42-1.66-2.26-2.38-1.63-1.4-3.12-2.94-3.85-5.01-.84-2.4-.67-4.74.77-6.91.41-.62,1.01-1.02,1.65-1.33,2.24-1.09,4.48-1.04,6.55.36,1.97,1.33,2.15,3.44,2.08,5.58-.02.51-.32.64-.77.63-.44,0-.88,0-1.32,0q-1.51,0-1.62-1.45c-.09-1.21-1-2.18-2.02-2.16-1.05.02-1.91,1.04-1.92,2.25-.02,1.48.75,2.6,1.67,3.64,1.16,1.32,2.51,2.45,3.77,3.67,2.07,2,2.42,4.41,2.26,7.08ZM309.79,146.96c-2.8,0-5.6,0-8.4,0-1.84,0-1.85-.01-1.84-1.8.02-11.09.04-22.18.05-33.26,0-.63.12-1.29-.13-1.87-.49-.07-.53.24-.58.49-.65,3.67-1.81,7.22-2.65,10.85-1.01,4.37-2.13,8.72-3.29,13.05-.96,3.6-1.47,7.3-2.57,10.87-.48,1.55-.47,1.66-2.11,1.67-2.58,0-5.16,0-7.75,0-1.78,0-1.81-.05-2.22-1.72-.86-3.51-1.71-7.02-2.6-10.52-.94-3.71-2.08-7.39-2.82-11.14-.83-4.26-2.19-8.37-3.06-12.62-.05-.26-.09-.55-.49-.59-.37.46-.2,1.02-.21,1.53-.01,11.03-.02,22.07-.02,33.1,0,.05,0,.11,0,.16,0,1.76,0,1.77-1.7,1.77-2.75,0-5.49,0-8.24-.01-1.63,0-1.64-.02-1.64-1.65-.03-11.25-.06-22.51-.07-33.76,0-4.5.02-9,.03-13.5,0-1.69.01-1.69,1.76-1.7,5.11-.02,10.22-.03,15.33-.04,1.71,0,2.02.14,2.3,1.84.38,2.28.96,4.5,1.51,6.73.92,3.77,1.55,7.6,2.67,11.33.27.89.43,1.82.56,2.74.61,4.35,2.02,8.53,2.8,12.84.02.13.16.25.24.37.51-.17.5-.62.54-.96.23-1.86.81-3.63,1.26-5.43.92-3.77,1.64-7.59,2.71-11.33.54-1.89.75-3.88,1.32-5.76,1.13-3.68,1.37-7.54,2.47-11.23.24-.79.58-1.05,1.36-1.05,5.49.02,10.99.02,16.48,0,.75,0,1.15.22,1.1,1.02-.02.27,0,.55,0,.82.02,15.53.03,31.07.05,46.6,0,2.38.03,2.16-2.13,2.16Z"/>
  <path class="cls-1" d="M237.21,108.23c-.02-2.4-1.29-3.82-3.68-4.3-2.56-.51-5.14-.27-7.71-.27-1.01,0-1.15.2-1.17,1.34-.03,2.14,0,4.28,0,6.42,0,2.14.02,4.28,0,6.42-.01.82.26,1.21,1.13,1.2,2.25-.04,4.52.15,6.74-.09,2.96-.32,4.83-1.71,4.7-4.96-.08-1.92.02-3.84,0-5.76Z"/>
  <path class="cls-1" d="M263.38,171.84c0-2.36.02-4.71,0-7.07-.01-1.11-.96-2.1-1.89-2.07-1,.03-1.81.93-1.86,2.1,0,.16,0,.33,0,.49,0,4.33,0,8.66,0,12.99,0,.44,0,.88.08,1.31.15.78.64,1.23,1.46,1.32,1.36.15,2.17-.52,2.2-1.99.05-2.35.01-4.71.01-7.07h0Z"/>
  <path class="cls-1" d="M194.36,167.71c-.08-.75-.2-1.5-.8-2.31-.44,3.07-1.04,5.89-1.27,8.77-.15,1.8-.16,1.8,1.66,1.79,1.52,0,1.7-.14,1.36-1.58-.52-2.2-.71-4.44-.94-6.68Z"/>
  <path class="cls-1" d="M458.82,107.15l12.64-27.96h-98.25c-6.86-17-16.83-32.42-29.2-45.55l-11.27,11.27c-23.87-24.59-57.25-39.9-94.14-39.9s-70.63,15.47-94.52,40.29l-11.65-11.65c-12.38,13.13-22.35,28.55-29.2,45.55H4.98l12.64,27.96h77.5c-.7,3.81-1.26,7.67-1.65,11.57H21.91l12.64,27.96h58.77c.38,4.25.94,8.45,1.68,12.6h-55.86l12.64,27.96h51.2c7.76,19.51,19.61,36.96,34.5,51.28l8.95-8.95c23.72,23.42,56.28,37.91,92.17,37.91s68.1-14.33,91.78-37.54l8.58,8.58c14.89-14.32,26.73-31.78,34.5-51.28h51.2l12.64-27.96h-55.86c.74-4.14,1.3-8.34,1.68-12.6h58.77l12.64-27.96h-71.56c-.4-3.91-.95-7.76-1.65-11.57h77.5ZM238.6,236.68c-55.38,0-100.43-45.05-100.43-100.43s45.05-100.43,100.43-100.43,100.43,45.05,100.43,100.43-45.05,100.43-100.43,100.43Z"/>
</svg>